<?xml version="1.0" standalone="no"?>
<!DOCTYPE svg PUBLIC "-//W3C//DTD SVG 20010904//EN"
 "http://www.w3.org/TR/2001/REC-SVG-20010904/DTD/svg10.dtd">
<svg version="1.0" xmlns="http://www.w3.org/2000/svg"
 width="383.000000pt" height="398.000000pt" viewBox="0 0 383.000000 398.000000"
 preserveAspectRatio="xMidYMid meet">

<g transform="translate(0.000000,398.000000) scale(0.100000,-0.100000)"
fill="#5E17EB" stroke="none">
<path d="M50 2450 l0 -1490 245 0 245 0 0 470 0 470 95 0 c89 0 96 -2 125 -28
17 -15 158 -216 314 -447 241 -357 289 -422 322 -440 38 -19 55 -20 539 -20
480 0 502 1 540 20 42 21 59 41 412 474 109 135 210 253 225 264 20 15 44 20
105 21 l78 1 3 -847 2 -848 245 0 245 0 0 1480 0 1480 -245 0 -245 0 -2 -467
-3 -468 -94 2 c-74 2 -100 6 -119 20 -14 10 -154 209 -311 442 -158 234 -299
434 -315 445 -26 20 -45 21 -394 29 -427 9 -658 5 -693 -13 -46 -24 -92 -76
-362 -409 -198 -244 -280 -337 -304 -347 -18 -8 -62 -14 -98 -14 l-65 0 0 855
0 855 -245 0 -245 0 0 -1490z m2216 28 c197 -288 378 -544 403 -571 48 -51 48
-53 -11 -87 -10 -6 -176 -200 -369 -431 -313 -374 -353 -418 -364 -402 -245
359 -687 1000 -713 1033 -19 25 -48 56 -64 70 l-28 25 49 40 c27 22 200 221
386 443 185 221 340 402 344 402 5 0 169 -235 367 -522z"/>
</g>
</svg>
